<svg width="200" height="200" viewBox="0 0 200 200" fill="none" xmlns="http://www.w3.org/2000/svg">
<path d="M180.944 87.3334L162.333 81.7778C161.047 77.2851 159.277 72.945 157.056 68.8334L166.167 51.7778C166.509 51.134 166.634 50.3971 166.524 49.6766C166.414 48.956 166.074 48.2901 165.556 47.7778L152.278 34.4445C151.765 33.926 151.1 33.5865 150.379 33.4764C149.658 33.3663 148.922 33.4915 148.278 33.8333L131.333 42.8889C127.181 40.5592 122.784 38.6961 118.222 37.3333L112.667 18.9445C112.432 18.2668 111.988 17.6811 111.399 17.2718C110.81 16.8625 110.106 16.6506 109.389 16.6667H90.6111C89.8897 16.67 89.1881 16.9035 88.6086 17.3332C88.0291 17.7629 87.6018 18.3663 87.3889 19.0556L81.8333 37.3889C77.2334 38.7443 72.7987 40.6077 68.6111 42.9445L51.9444 33.9445C51.3007 33.6026 50.5638 33.4774 49.8432 33.5875C49.1227 33.6976 48.4568 34.0371 47.9444 34.5556L34.4444 47.7222C33.9259 48.2346 33.5864 48.9005 33.4764 49.621C33.3663 50.3416 33.4915 51.0785 33.8333 51.7222L42.8333 68.3889C40.5003 72.5589 38.6371 76.9748 37.2778 81.5556L18.8889 87.1111C18.1996 87.324 17.5962 87.7513 17.1665 88.3308C16.7369 88.9104 16.5034 89.6119 16.5 90.3334V109.111C16.5034 109.833 16.7369 110.534 17.1665 111.114C17.5962 111.693 18.1996 112.12 18.8889 112.333L37.3889 117.889C38.763 122.393 40.626 126.734 42.9444 130.833L33.8333 148.278C33.4915 148.922 33.3663 149.658 33.4764 150.379C33.5864 151.1 33.9259 151.765 34.4444 152.278L47.7222 165.556C48.2346 166.074 48.9004 166.414 49.621 166.524C50.3416 166.634 51.0784 166.509 51.7222 166.167L68.8889 157C72.9498 159.191 77.2334 160.942 81.6667 162.222L87.2222 180.944C87.4351 181.634 87.8624 182.237 88.4419 182.667C89.0215 183.096 89.723 183.33 90.4444 183.333H109.222C109.944 183.33 110.645 183.096 111.225 182.667C111.804 182.237 112.232 181.634 112.444 180.944L118 162.167C122.395 160.88 126.641 159.129 130.667 156.944L147.944 166.167C148.588 166.509 149.325 166.634 150.046 166.524C150.766 166.414 151.432 166.074 151.944 165.556L165.222 152.278C165.741 151.765 166.08 151.1 166.19 150.379C166.3 149.658 166.175 148.922 165.833 148.278L156.611 131.056C158.819 127.015 160.588 122.75 161.889 118.333L180.611 112.778C181.3 112.565 181.904 112.138 182.333 111.558C182.763 110.979 182.997 110.277 183 109.556V90.6111C183.033 89.9203 182.853 89.236 182.486 88.6501C182.119 88.0641 181.581 87.6047 180.944 87.3334ZM100 130.556C93.9567 130.556 88.0491 128.764 83.0242 125.406C77.9994 122.049 74.083 117.276 71.7703 111.693C69.4577 106.11 68.8526 99.9661 70.0316 94.0389C71.2106 88.1117 74.1207 82.6672 78.394 78.394C82.6672 74.1207 88.1117 71.2106 94.0389 70.0316C99.9661 68.8526 106.11 69.4577 111.693 71.7704C117.276 74.083 122.049 77.9994 125.406 83.0243C128.763 88.0491 130.556 93.9567 130.556 100C130.556 108.104 127.336 115.876 121.606 121.606C115.876 127.336 108.104 130.556 100 130.556Z" fill="#C4C4C4"/>
<circle cx="100" cy="100" r="60" fill="#FFFFF3"/>
<circle cx="100" cy="100" r="43.5" fill="#FFFFF3" stroke="#C4C4C4" stroke-width="3"/>
<path d="M99.3 106.55C96.4333 106.55 94.0167 106.083 92.05 105.15C90.0833 104.183 88.5833 102.933 87.55 101.4C86.55 99.8667 86.0167 98.2333 85.95 96.5C85.9167 96.2 86 95.9667 86.2 95.8C86.4333 95.6 86.7 95.5 87 95.5H91.65C92.0167 95.5 92.3167 95.5833 92.55 95.75C92.8167 95.8833 93.0167 96.1333 93.15 96.5C93.4833 97.5 93.95 98.3167 94.55 98.95C95.1833 99.5833 95.9 100.05 96.7 100.35C97.5333 100.65 98.4 100.8 99.3 100.8C100.5 100.8 101.583 100.567 102.55 100.1C103.55 99.6 104.35 98.8667 104.95 97.9C105.55 96.9333 105.85 95.75 105.85 94.35C105.85 93.1167 105.567 92.05 105 91.15C104.433 90.25 103.65 89.55 102.65 89.05C101.683 88.5167 100.567 88.25 99.3 88.25C98.3667 88.25 97.6 88.3667 97 88.6C96.4 88.8333 95.8833 89.1 95.45 89.4C95.05 89.7 94.6833 89.9667 94.35 90.2C94.05 90.4333 93.7 90.55 93.3 90.55H88.7C88.4 90.55 88.1333 90.45 87.9 90.25C87.7 90.0167 87.6 89.75 87.6 89.45L89.35 72.35C89.3833 71.9167 89.5333 71.5833 89.8 71.35C90.0667 71.1167 90.3833 71 90.75 71H109.55C109.883 71 110.167 71.1167 110.4 71.35C110.633 71.5833 110.75 71.8667 110.75 72.2V75.55C110.75 75.8833 110.633 76.1667 110.4 76.4C110.167 76.6333 109.883 76.75 109.55 76.75H95.1L94.3 84.9C94.9 84.5 95.7 84.1167 96.7 83.75C97.7 83.3833 99.0833 83.2 100.85 83.2C102.45 83.2 103.967 83.4667 105.4 84C106.867 84.5 108.167 85.25 109.3 86.25C110.433 87.2167 111.317 88.4 111.95 89.8C112.617 91.1667 112.95 92.7333 112.95 94.5C112.95 96.9333 112.383 99.05 111.25 100.85C110.117 102.65 108.533 104.05 106.5 105.05C104.467 106.05 102.067 106.55 99.3 106.55Z" fill="black"/>
<path d="M80.148 130C80.028 130 79.926 129.958 79.842 129.874C79.758 129.79 79.716 129.688 79.716 129.568V125.5L75.468 117.976C75.456 117.952 75.444 117.922 75.432 117.886C75.42 117.85 75.414 117.814 75.414 117.778C75.414 117.67 75.45 117.58 75.522 117.508C75.594 117.436 75.678 117.4 75.774 117.4H77.376C77.52 117.4 77.634 117.436 77.718 117.508C77.814 117.58 77.88 117.658 77.916 117.742L80.976 122.98L84.018 117.742C84.066 117.658 84.132 117.58 84.216 117.508C84.312 117.436 84.432 117.4 84.576 117.4H86.16C86.268 117.4 86.358 117.436 86.43 117.508C86.502 117.58 86.538 117.67 86.538 117.778C86.538 117.814 86.532 117.85 86.52 117.886C86.52 117.922 86.508 117.952 86.484 117.976L82.236 125.5V129.568C82.236 129.688 82.194 129.79 82.11 129.874C82.026 129.958 81.918 130 81.786 130H80.148ZM90.6263 130.18C89.2943 130.18 88.2383 129.796 87.4583 129.028C86.6783 128.26 86.2583 127.168 86.1983 125.752C86.1863 125.632 86.1803 125.482 86.1803 125.302C86.1803 125.11 86.1863 124.96 86.1983 124.852C86.2463 123.952 86.4503 123.172 86.8103 122.512C87.1823 121.852 87.6923 121.348 88.3403 121C88.9883 120.64 89.7503 120.46 90.6263 120.46C91.5983 120.46 92.4143 120.664 93.0743 121.072C93.7343 121.468 94.2323 122.026 94.5683 122.746C94.9043 123.454 95.0723 124.276 95.0723 125.212V125.59C95.0723 125.71 95.0303 125.812 94.9463 125.896C94.8623 125.98 94.7543 126.022 94.6223 126.022H88.6463C88.6463 126.022 88.6463 126.04 88.6463 126.076C88.6463 126.112 88.6463 126.142 88.6463 126.166C88.6583 126.586 88.7363 126.976 88.8803 127.336C89.0363 127.684 89.2583 127.966 89.5463 128.182C89.8463 128.398 90.2003 128.506 90.6083 128.506C90.9443 128.506 91.2263 128.458 91.4543 128.362C91.6823 128.254 91.8683 128.134 92.0123 128.002C92.1563 127.87 92.2583 127.762 92.3183 127.678C92.4263 127.534 92.5103 127.45 92.5703 127.426C92.6423 127.39 92.7443 127.372 92.8763 127.372H94.4243C94.5443 127.372 94.6403 127.408 94.7123 127.48C94.7963 127.552 94.8323 127.642 94.8203 127.75C94.8083 127.942 94.7063 128.176 94.5143 128.452C94.3343 128.728 94.0703 128.998 93.7223 129.262C93.3743 129.526 92.9363 129.748 92.4083 129.928C91.8923 130.096 91.2983 130.18 90.6263 130.18ZM88.6463 124.51H92.6243V124.456C92.6243 123.988 92.5463 123.58 92.3903 123.232C92.2343 122.884 92.0063 122.608 91.7063 122.404C91.4063 122.2 91.0463 122.098 90.6263 122.098C90.2063 122.098 89.8463 122.2 89.5463 122.404C89.2463 122.608 89.0183 122.884 88.8623 123.232C88.7183 123.58 88.6463 123.988 88.6463 124.456V124.51ZM99.7009 130.18C99.0769 130.18 98.5129 130.06 98.0089 129.82C97.5049 129.568 97.1029 129.238 96.8029 128.83C96.5149 128.41 96.3709 127.942 96.3709 127.426C96.3709 126.586 96.7069 125.92 97.3789 125.428C98.0629 124.924 98.9629 124.588 100.079 124.42L102.545 124.06V123.682C102.545 123.178 102.419 122.788 102.167 122.512C101.915 122.236 101.483 122.098 100.871 122.098C100.439 122.098 100.085 122.188 99.8089 122.368C99.5449 122.536 99.3469 122.764 99.2149 123.052C99.1189 123.208 98.9809 123.286 98.8009 123.286H97.3789C97.2469 123.286 97.1449 123.25 97.0729 123.178C97.0129 123.106 96.9829 123.01 96.9829 122.89C96.9949 122.698 97.0729 122.464 97.2169 122.188C97.3609 121.912 97.5889 121.648 97.9009 121.396C98.2129 121.132 98.6149 120.91 99.1069 120.73C99.5989 120.55 100.193 120.46 100.889 120.46C101.645 120.46 102.281 120.556 102.797 120.748C103.325 120.928 103.745 121.174 104.057 121.486C104.369 121.798 104.597 122.164 104.741 122.584C104.885 123.004 104.957 123.448 104.957 123.916V129.568C104.957 129.688 104.915 129.79 104.831 129.874C104.747 129.958 104.645 130 104.525 130H103.067C102.935 130 102.827 129.958 102.743 129.874C102.671 129.79 102.635 129.688 102.635 129.568V128.866C102.479 129.094 102.269 129.31 102.005 129.514C101.741 129.706 101.417 129.868 101.033 130C100.661 130.12 100.217 130.18 99.7009 130.18ZM100.313 128.47C100.733 128.47 101.111 128.38 101.447 128.2C101.795 128.02 102.065 127.744 102.257 127.372C102.461 126.988 102.563 126.508 102.563 125.932V125.554L100.763 125.842C100.055 125.95 99.5269 126.124 99.1789 126.364C98.8309 126.604 98.6569 126.898 98.6569 127.246C98.6569 127.51 98.7349 127.738 98.8909 127.93C99.0589 128.11 99.2689 128.248 99.5209 128.344C99.7729 128.428 100.037 128.47 100.313 128.47ZM107.698 130C107.578 130 107.476 129.958 107.392 129.874C107.308 129.79 107.266 129.688 107.266 129.568V121.09C107.266 120.958 107.308 120.85 107.392 120.766C107.476 120.682 107.578 120.64 107.698 120.64H109.156C109.276 120.64 109.378 120.682 109.462 120.766C109.558 120.85 109.606 120.958 109.606 121.09V121.828C109.882 121.444 110.236 121.15 110.668 120.946C111.112 120.742 111.622 120.64 112.198 120.64H112.936C113.068 120.64 113.17 120.682 113.242 120.766C113.326 120.85 113.368 120.952 113.368 121.072V122.368C113.368 122.488 113.326 122.59 113.242 122.674C113.17 122.758 113.068 122.8 112.936 122.8H111.532C110.956 122.8 110.506 122.962 110.182 123.286C109.87 123.61 109.714 124.054 109.714 124.618V129.568C109.714 129.688 109.672 129.79 109.588 129.874C109.504 129.958 109.396 130 109.264 130H107.698ZM118.318 130.18C117.598 130.18 116.98 130.096 116.464 129.928C115.96 129.76 115.546 129.55 115.222 129.298C114.898 129.046 114.658 128.794 114.502 128.542C114.346 128.29 114.262 128.08 114.25 127.912C114.238 127.78 114.274 127.678 114.358 127.606C114.454 127.522 114.556 127.48 114.664 127.48H116.086C116.134 127.48 116.176 127.486 116.212 127.498C116.248 127.51 116.296 127.546 116.356 127.606C116.512 127.738 116.674 127.876 116.842 128.02C117.022 128.164 117.232 128.29 117.472 128.398C117.712 128.494 118.012 128.542 118.372 128.542C118.84 128.542 119.23 128.452 119.542 128.272C119.866 128.08 120.028 127.81 120.028 127.462C120.028 127.21 119.956 127.006 119.812 126.85C119.68 126.694 119.428 126.556 119.056 126.436C118.684 126.304 118.156 126.166 117.472 126.022C116.8 125.866 116.242 125.668 115.798 125.428C115.354 125.188 115.024 124.888 114.808 124.528C114.592 124.168 114.484 123.748 114.484 123.268C114.484 122.8 114.622 122.356 114.898 121.936C115.186 121.504 115.606 121.15 116.158 120.874C116.722 120.598 117.418 120.46 118.246 120.46C118.894 120.46 119.458 120.544 119.938 120.712C120.418 120.868 120.814 121.066 121.126 121.306C121.45 121.546 121.696 121.792 121.864 122.044C122.032 122.284 122.122 122.494 122.134 122.674C122.146 122.806 122.11 122.914 122.026 122.998C121.942 123.07 121.846 123.106 121.738 123.106H120.406C120.346 123.106 120.292 123.094 120.244 123.07C120.196 123.046 120.148 123.016 120.1 122.98C119.968 122.86 119.824 122.734 119.668 122.602C119.512 122.47 119.32 122.356 119.092 122.26C118.876 122.152 118.588 122.098 118.228 122.098C117.772 122.098 117.424 122.2 117.184 122.404C116.944 122.596 116.824 122.842 116.824 123.142C116.824 123.346 116.878 123.526 116.986 123.682C117.106 123.826 117.34 123.964 117.688 124.096C118.036 124.228 118.564 124.366 119.272 124.51C120.076 124.654 120.712 124.87 121.18 125.158C121.66 125.434 121.996 125.758 122.188 126.13C122.392 126.49 122.494 126.892 122.494 127.336C122.494 127.876 122.332 128.362 122.008 128.794C121.696 129.226 121.228 129.568 120.604 129.82C119.992 130.06 119.23 130.18 118.318 130.18Z" fill="black"/>
<path d="M46.505 119.207C46.1796 118.507 46.0139 117.853 46.0078 117.244C46.0096 116.632 46.1843 116.072 46.5321 115.567C46.8876 115.057 47.4214 114.622 48.1334 114.262C48.4676 114.097 48.7997 113.938 49.1298 113.785C49.4598 113.631 49.7995 113.478 50.1489 113.325C50.875 113.016 51.5453 112.895 52.1599 112.963C52.7745 113.03 53.3205 113.259 53.7981 113.649C54.2793 114.046 54.6771 114.583 54.9915 115.258C55.3059 115.934 55.4601 116.584 55.4541 117.208C55.4482 117.832 55.2731 118.401 54.9291 118.915C54.585 119.429 54.0609 119.864 53.3568 120.22C53.0184 120.397 52.6841 120.562 52.3541 120.715C52.0241 120.869 51.6865 121.016 51.3413 121.158C50.6074 121.47 49.931 121.599 49.3122 121.543C48.7013 121.483 48.1591 121.252 47.6858 120.851C47.2239 120.454 46.8303 119.906 46.505 119.207ZM47.8605 118.576C48.0981 119.087 48.4411 119.434 48.8896 119.617C49.346 119.797 49.9214 119.739 50.616 119.445C50.9691 119.3 51.291 119.159 51.5818 119.024C51.8804 118.885 52.1949 118.729 52.5255 118.556C52.974 118.329 53.3031 118.07 53.5128 117.782C53.7341 117.497 53.8473 117.196 53.8524 116.878C53.8653 116.557 53.7932 116.227 53.636 115.889C53.4825 115.559 53.2786 115.295 53.0244 115.098C52.778 114.897 52.4729 114.786 52.109 114.764C51.7567 114.747 51.349 114.836 50.8859 115.032C50.5444 115.182 50.2243 115.326 49.9257 115.465C49.635 115.6 49.3185 115.752 48.9765 115.921C48.3038 116.262 47.8892 116.665 47.7326 117.13C47.5839 117.591 47.6265 118.073 47.8605 118.576Z" fill="black"/>
<path d="M51.1437 127.65C51.0955 127.578 51.0797 127.5 51.0963 127.415C51.113 127.331 51.1573 127.265 51.2293 127.217L56.3275 123.802C56.3996 123.754 56.4776 123.738 56.5618 123.755C56.646 123.772 56.7122 123.816 56.7604 123.888L57.3536 124.774C57.4018 124.846 57.4176 124.924 57.401 125.008C57.3843 125.092 57.34 125.158 57.268 125.207L56.8251 125.503C57.1809 125.536 57.5309 125.646 57.875 125.833C58.2312 126.022 58.5539 126.332 58.8433 126.764C59.1375 127.204 59.2923 127.653 59.3076 128.112C59.3302 128.566 59.2194 129 58.9751 129.414C58.7356 129.835 58.3638 130.215 57.8598 130.552L54.8246 132.585C54.7526 132.633 54.6745 132.649 54.5903 132.632C54.5062 132.616 54.44 132.571 54.3917 132.499L53.7552 131.549C53.7069 131.477 53.6911 131.399 53.7078 131.315C53.7244 131.231 53.7688 131.164 53.8408 131.116L56.8111 129.127C57.2288 128.847 57.4865 128.523 57.5843 128.155C57.6869 127.794 57.608 127.42 57.3475 127.031C57.0968 126.656 56.7778 126.437 56.3907 126.373C56.0035 126.309 55.6012 126.417 55.1835 126.696L52.2131 128.686C52.1411 128.734 52.063 128.75 51.9789 128.733C51.8947 128.717 51.8285 128.672 51.7803 128.6L51.1437 127.65Z" fill="black"/>
<path d="M67.411 146.012C67.3424 145.959 67.3027 145.89 67.2919 145.805C67.281 145.72 67.3021 145.643 67.3552 145.575L71.7549 139.889L69.8529 138.417C69.7844 138.364 69.7447 138.295 69.7339 138.21C69.723 138.125 69.7441 138.048 69.7971 137.98L70.3859 137.219C70.4442 137.143 70.516 137.1 70.6011 137.089C70.6862 137.079 70.763 137.1 70.8315 137.153L76.0749 141.21C76.1503 141.269 76.1934 141.34 76.2042 141.426C76.2151 141.511 76.1913 141.591 76.133 141.666L75.5442 142.427C75.4912 142.496 75.4221 142.535 75.337 142.546C75.2519 142.557 75.1717 142.533 75.0963 142.475L73.2046 141.011L68.8048 146.696C68.7518 146.765 68.6827 146.805 68.5976 146.815C68.5125 146.826 68.4322 146.803 68.3568 146.744L67.411 146.012Z" fill="black"/>
<path d="M75.1194 151.053C75.0404 151.017 74.9857 150.959 74.9553 150.879C74.925 150.799 74.9276 150.719 74.9632 150.64L78.4989 142.794C78.5345 142.715 78.5925 142.66 78.6727 142.63C78.7529 142.599 78.8326 142.602 78.9116 142.638L79.9664 143.113C80.0533 143.152 80.108 143.21 80.1305 143.287C80.1609 143.367 80.1583 143.447 80.1227 143.526L78.9049 146.228C79.2322 146.071 79.5855 145.983 79.9649 145.964C80.3443 145.945 80.7591 146.037 81.2095 146.24C81.6915 146.457 82.0604 146.756 82.3163 147.138C82.5836 147.515 82.727 147.946 82.7465 148.43C82.766 148.914 82.6512 149.432 82.4019 149.985L80.9011 153.316C80.8655 153.395 80.8076 153.45 80.7273 153.48C80.6471 153.51 80.5675 153.508 80.4884 153.472L79.4218 152.991C79.3427 152.956 79.288 152.898 79.2577 152.818C79.2273 152.737 79.2299 152.658 79.2655 152.579L80.7343 149.319C80.9408 148.861 80.9882 148.45 80.8766 148.086C80.7729 147.726 80.5077 147.449 80.081 147.257C79.6701 147.072 79.2795 147.053 78.9091 147.199C78.5467 147.35 78.2622 147.654 78.0557 148.112L76.5869 151.372C76.5513 151.451 76.4934 151.505 76.4131 151.536C76.3408 151.57 76.2612 151.567 76.1743 151.528L75.1194 151.053Z" fill="black"/>
<path d="M91.1351 156.548C90.1869 156.386 89.4819 155.984 89.0201 155.342C88.5583 154.7 88.3922 153.872 88.5219 152.857C88.5279 152.77 88.5419 152.662 88.5638 152.534C88.5872 152.397 88.6097 152.291 88.6314 152.216C88.7751 151.581 89.0153 151.051 89.3519 150.625C89.6971 150.2 90.1215 149.903 90.6252 149.734C91.1303 149.557 91.6947 149.522 92.3183 149.628C93.0103 149.747 93.5663 149.991 93.9865 150.362C94.4082 150.724 94.6948 151.182 94.8463 151.735C94.9993 152.28 95.0189 152.886 94.9049 153.552L94.8589 153.821C94.8443 153.907 94.802 153.974 94.732 154.024C94.6619 154.074 94.5799 154.09 94.486 154.074L90.2317 153.347C90.2317 153.347 90.2295 153.36 90.2251 153.385C90.2208 153.411 90.2171 153.432 90.2142 153.449C90.1716 153.75 90.1796 154.037 90.2383 154.311C90.307 154.577 90.4307 154.805 90.6095 154.994C90.7967 155.184 91.0356 155.304 91.3261 155.354C91.5653 155.395 91.7719 155.395 91.9458 155.354C92.1213 155.305 92.2683 155.242 92.3869 155.166C92.5055 155.09 92.5912 155.025 92.6442 154.973C92.7386 154.883 92.8086 154.834 92.8543 154.824C92.9099 154.807 92.9847 154.807 93.0787 154.823L94.1807 155.011C94.2661 155.026 94.3301 155.063 94.3726 155.123C94.4236 155.185 94.4383 155.253 94.4166 155.328C94.3847 155.464 94.2836 155.618 94.1133 155.791C93.9515 155.966 93.7307 156.126 93.4509 156.271C93.171 156.417 92.8322 156.521 92.4344 156.585C92.0466 156.642 91.6135 156.63 91.1351 156.548ZM90.4158 152.27L93.2477 152.755L93.2542 152.716C93.3112 152.383 93.3053 152.083 93.2366 151.816C93.168 151.55 93.0392 151.325 92.8505 151.144C92.6618 150.962 92.4179 150.845 92.1189 150.794C91.8199 150.743 91.5512 150.772 91.3128 150.881C91.0744 150.989 90.8785 151.158 90.7251 151.387C90.5802 151.617 90.4793 151.899 90.4223 152.232L90.4158 152.27Z" fill="black"/>
<path d="M110.323 156.569C110.231 156.594 110.147 156.585 110.073 156.542C109.999 156.499 109.95 156.436 109.928 156.352L107.724 148.181C107.699 148.089 107.708 148.006 107.751 147.931C107.794 147.857 107.861 147.808 107.953 147.783L108.945 147.515C109.062 147.484 109.159 147.493 109.235 147.545C109.31 147.587 109.36 147.623 109.385 147.652L113.027 151.517L114.255 146.339C114.263 146.301 114.288 146.245 114.331 146.17C114.372 146.087 114.45 146.03 114.568 145.999L115.547 145.735C115.639 145.71 115.722 145.719 115.796 145.762C115.871 145.804 115.92 145.872 115.945 145.964L118.149 154.135C118.171 154.218 118.161 154.297 118.119 154.372C118.076 154.446 118.008 154.496 117.916 154.521L116.862 154.805C116.77 154.83 116.687 154.821 116.612 154.778C116.546 154.733 116.502 154.669 116.48 154.585L115.014 149.15L114.16 152.975C114.139 153.062 114.103 153.144 114.051 153.22C113.998 153.289 113.917 153.337 113.808 153.367L113.293 153.505C113.176 153.537 113.078 153.537 112.997 153.505C112.923 153.462 112.854 153.408 112.792 153.344L110.131 150.467L111.597 155.902C111.62 155.986 111.609 156.065 111.567 156.139C111.524 156.213 111.461 156.262 111.377 156.284L110.323 156.569Z" fill="black"/>
<path d="M128.014 150.027C127.629 150.261 127.235 150.398 126.834 150.439C126.429 150.472 126.057 150.419 125.719 150.28C125.384 150.129 125.119 149.894 124.926 149.575C124.611 149.057 124.569 148.52 124.799 147.964C125.032 147.396 125.462 146.852 126.088 146.33L127.475 145.183L127.334 144.95C127.145 144.639 126.921 144.445 126.662 144.369C126.403 144.293 126.084 144.37 125.707 144.599C125.44 144.761 125.255 144.949 125.152 145.164C125.052 145.367 125.015 145.582 125.042 145.809C125.041 145.941 124.985 146.041 124.874 146.109L123.996 146.642C123.915 146.691 123.838 146.707 123.767 146.69C123.703 146.668 123.648 146.62 123.603 146.546C123.539 146.423 123.499 146.249 123.485 146.025C123.47 145.8 123.512 145.552 123.61 145.279C123.704 144.999 123.869 144.712 124.105 144.416C124.341 144.12 124.674 143.842 125.104 143.581C125.57 143.298 125.999 143.119 126.39 143.044C126.783 142.957 127.134 142.952 127.444 143.027C127.754 143.103 128.032 143.243 128.278 143.449C128.524 143.654 128.735 143.901 128.91 144.19L131.029 147.679C131.074 147.753 131.086 147.832 131.066 147.915C131.046 147.999 130.998 148.063 130.924 148.108L130.024 148.654C129.943 148.704 129.86 148.718 129.777 148.698C129.701 148.673 129.641 148.624 129.596 148.55L129.333 148.116C129.322 148.315 129.273 148.527 129.187 148.752C129.096 148.97 128.956 149.191 128.769 149.417C128.584 149.63 128.332 149.834 128.014 150.027ZM127.751 148.742C128.01 148.585 128.21 148.387 128.349 148.15C128.497 147.909 128.56 147.637 128.539 147.336C128.521 147.022 128.404 146.687 128.188 146.332L128.047 146.099L127.043 146.951C126.647 147.283 126.386 147.588 126.261 147.867C126.136 148.146 126.139 148.392 126.27 148.607C126.369 148.77 126.502 148.882 126.67 148.942C126.842 148.99 127.023 148.996 127.214 148.961C127.402 148.919 127.58 148.846 127.751 148.742Z" fill="black"/>
<path d="M137.38 143.045C137.318 143.105 137.244 143.135 137.158 143.133C137.072 143.132 136.999 143.101 136.938 143.038L132.669 138.649C132.603 138.581 132.57 138.504 132.571 138.418C132.573 138.332 132.604 138.259 132.666 138.199L133.421 137.464C133.483 137.404 133.557 137.374 133.643 137.376C133.735 137.371 133.814 137.402 133.881 137.471L134.252 137.853C134.202 137.515 134.237 137.185 134.358 136.862C134.485 136.532 134.698 136.223 134.996 135.933L135.378 135.561C135.447 135.495 135.521 135.465 135.6 135.472C135.686 135.473 135.759 135.505 135.82 135.567L136.472 136.238C136.533 136.3 136.562 136.374 136.561 136.46C136.566 136.54 136.534 136.613 136.466 136.679L135.739 137.386C135.441 137.676 135.289 137.987 135.285 138.318C135.286 138.643 135.429 138.951 135.713 139.243L138.206 141.806C138.266 141.868 138.296 141.942 138.295 142.028C138.294 142.113 138.259 142.19 138.19 142.256L137.38 143.045Z" fill="black"/>
<path d="M144.966 134.611C144.919 134.684 144.854 134.729 144.77 134.747C144.686 134.765 144.607 134.751 144.535 134.704L137.306 130.034C137.233 129.987 137.187 129.922 137.169 129.838C137.151 129.754 137.166 129.676 137.213 129.603L137.784 128.718C137.836 128.638 137.901 128.593 137.98 128.582C138.064 128.564 138.143 128.579 138.215 128.626L141.95 131.038L141.399 128.082C141.383 127.979 141.377 127.892 141.381 127.822C141.377 127.748 141.408 127.66 141.474 127.558L142.13 126.542C142.177 126.469 142.237 126.425 142.308 126.41C142.38 126.394 142.453 126.41 142.525 126.457C142.555 126.476 142.583 126.504 142.61 126.542C142.637 126.581 142.651 126.631 142.651 126.693L143.306 130.304L147.644 129.531C147.763 129.505 147.849 129.509 147.9 129.542C147.973 129.589 148.014 129.652 148.025 129.731C148.041 129.803 148.027 129.871 147.985 129.937L147.315 130.974C147.244 131.084 147.178 131.154 147.116 131.186C147.051 131.207 146.969 131.231 146.868 131.259L143.326 131.927L145.445 133.295C145.517 133.342 145.563 133.407 145.581 133.491C145.604 133.568 145.589 133.646 145.537 133.726L144.966 134.611Z" fill="black"/>
<path d="M152.357 120.505C152.046 121.415 151.537 122.047 150.831 122.401C150.124 122.755 149.279 122.788 148.298 122.498C148.213 122.479 148.109 122.448 147.986 122.406C147.854 122.361 147.753 122.322 147.682 122.289C147.078 122.046 146.593 121.724 146.226 121.324C145.861 120.916 145.636 120.45 145.549 119.926C145.454 119.399 145.509 118.836 145.713 118.237C145.94 117.573 146.27 117.063 146.702 116.707C147.127 116.348 147.625 116.138 148.195 116.076C148.757 116.012 149.359 116.089 149.998 116.307L150.257 116.395C150.339 116.423 150.399 116.476 150.436 116.553C150.474 116.63 150.478 116.713 150.447 116.804L149.053 120.888C149.053 120.888 149.065 120.892 149.09 120.901C149.115 120.909 149.135 120.916 149.151 120.922C149.441 121.012 149.726 121.049 150.006 121.035C150.28 121.009 150.525 120.923 150.739 120.777C150.957 120.622 151.113 120.405 151.209 120.127C151.287 119.897 151.32 119.693 151.307 119.515C151.287 119.334 151.248 119.179 151.192 119.049C151.135 118.92 151.085 118.825 151.041 118.765C150.968 118.657 150.93 118.58 150.928 118.534C150.92 118.476 150.932 118.402 150.962 118.312L151.324 117.254C151.352 117.172 151.399 117.114 151.465 117.082C151.533 117.041 151.603 117.038 151.674 117.071C151.803 117.124 151.939 117.249 152.083 117.444C152.229 117.632 152.352 117.875 152.452 118.174C152.551 118.474 152.601 118.825 152.6 119.228C152.595 119.62 152.514 120.045 152.357 120.505ZM148.02 120.536L148.947 117.816L148.911 117.804C148.591 117.695 148.294 117.653 148.019 117.678C147.745 117.704 147.503 117.795 147.294 117.953C147.084 118.11 146.931 118.332 146.833 118.62C146.735 118.907 146.721 119.177 146.79 119.429C146.859 119.682 146.995 119.902 147.196 120.09C147.401 120.269 147.663 120.414 147.983 120.523L148.02 120.536Z" fill="black"/>
<path d="M155.041 107.31C154.987 107.828 154.852 108.254 154.634 108.588C154.416 108.923 154.122 109.158 153.751 109.294C153.371 109.429 152.914 109.469 152.379 109.414L149.444 109.11L149.338 110.132C149.329 110.218 149.291 110.288 149.225 110.342C149.158 110.396 149.082 110.419 148.996 110.41L148.246 110.332C148.159 110.323 148.089 110.286 148.035 110.219C147.981 110.153 147.958 110.076 147.967 109.99L148.073 108.968L145.926 108.746C145.84 108.737 145.77 108.704 145.715 108.646C145.661 108.579 145.638 108.499 145.648 108.404L145.757 107.357C145.765 107.27 145.803 107.2 145.87 107.146C145.936 107.092 146.013 107.069 146.099 107.078L148.246 107.3L148.413 105.684C148.422 105.598 148.459 105.528 148.526 105.473C148.593 105.419 148.669 105.397 148.755 105.406L149.505 105.483C149.591 105.492 149.661 105.53 149.716 105.596C149.77 105.663 149.792 105.739 149.783 105.826L149.616 107.442L152.422 107.732C152.776 107.769 153.058 107.737 153.269 107.637C153.48 107.528 153.602 107.318 153.634 107.008L153.726 106.116C153.735 106.03 153.773 105.959 153.84 105.905C153.906 105.851 153.983 105.829 154.069 105.838L154.871 105.921C154.957 105.929 155.027 105.967 155.081 106.034C155.135 106.1 155.158 106.177 155.149 106.263L155.041 107.31Z" fill="black"/>
</svg>
