<svg width="1920" height="105" viewBox="0 0 1920 105" fill="none" xmlns="http://www.w3.org/2000/svg">
<path d="M-7 102.997C-7 102.997 110.202 46.5115 190 48.497C263.236 50.3192 296.243 102.496 369.5 102.997C455.208 103.583 495.927 94.492 573 56.997C647 20.9971 671.989 0.555564 734.5 2.49697C826.926 5.36743 864.534 82.5762 957 83.497C1040.69 84.3304 1078.33 19.0352 1162 20.997C1239.72 22.8192 1273.26 83.9334 1351 83.497C1427.44 83.0678 1460.38 27.9986 1536.5 20.997C1612.5 14.0061 1653.75 51.8492 1730 48.497C1807.79 45.0772 1924 2.49697 1924 2.49697" stroke="#FF4D00" stroke-width="3"/>
</svg>
